<svg width="1600" height="1000" viewBox="0 0 1600 1000" fill="none" xmlns="http://www.w3.org/2000/svg">
  <rect width="1600" height="1000" fill="#0A1623"/>
  <rect width="1600" height="1000" fill="url(#paint0_linear_8_11)"/>
  <circle cx="1351" cy="186" r="216" fill="#FFD655" fill-opacity="0.12"/>
  <circle cx="255" cy="866" r="263" fill="#2C5CFF" fill-opacity="0.16"/>
  <rect x="110" y="144" width="664" height="454" rx="32" fill="#E9F0F8"/>
  <rect x="170" y="232" width="544" height="282" rx="28" fill="#173A5F"/>
  <rect x="236" y="293" width="412" height="94" rx="18" fill="#FFFFFF"/>
  <rect x="236" y="406" width="308" height="82" rx="18" fill="#35B457"/>
  <rect x="904" y="160" width="542" height="689" rx="44" fill="url(#paint1_linear_8_11)" stroke="rgba(255,255,255,0.16)"/>
  <circle cx="1180" cy="356" r="122" fill="#D9A984"/>
  <path d="M1028 560C1028 485.441 1088.44 425 1163 425H1199C1273.56 425 1334 485.441 1334 560V789H1028V560Z" fill="#C7D4E8"/>
  <path d="M1102 469L1220 468L1211 735L1081 731L1102 469Z" fill="#F1F5F9"/>
  <path d="M100 629C100 598.072 125.072 573 156 573H809C839.928 573 865 598.072 865 629V773H100V629Z" fill="#F2F6FA"/>
  <rect x="156" y="612" width="654" height="123" rx="26" fill="#FFFFFF"/>
  <path d="M139 718C139 645.098 198.098 586 271 586H670C742.902 586 802 645.098 802 718V838H139V718Z" fill="#F6FBFF"/>
  <rect x="173" y="651" width="595" height="95" rx="24" fill="#174069"/>
  <circle cx="303" cy="841" r="56" fill="#14283F"/>
  <circle cx="646" cy="841" r="56" fill="#14283F"/>
  <text x="120" y="92" fill="white" font-family="'Avenir Next', 'Segoe UI', sans-serif" font-size="88" font-weight="800">
    Station to office.
  </text>
  <text x="120" y="184" fill="#FFD655" font-family="'Avenir Next', 'Segoe UI', sans-serif" font-size="44" font-weight="700">
    Confirmed seat. Predictable arrival.
  </text>
  <text x="239" y="349" fill="#173A5F" font-family="'Avenir Next', 'Segoe UI', sans-serif" font-size="44" font-weight="800">
    Ride Confirmed
  </text>
  <text x="259" y="459" fill="white" font-family="'Avenir Next', 'Segoe UI', sans-serif" font-size="34" font-weight="800">
    Route B  |  Seat 4A
  </text>
  <text x="204" y="717" fill="white" font-family="'Avenir Next', 'Segoe UI', sans-serif" font-size="50" font-weight="800">
    TileTap Corridor Transit
  </text>
  <text x="915" y="885" fill="white" font-family="'Avenir Next', 'Segoe UI', sans-serif" font-size="30" font-weight="600">
    Concept placeholder based on the attached ride-confirmed visual
  </text>
  <defs>
    <linearGradient id="paint0_linear_8_11" x1="1470" y1="64" x2="227" y2="936" gradientUnits="userSpaceOnUse">
      <stop stop-color="#173552"/>
      <stop offset="1" stop-color="#09121D"/>
    </linearGradient>
    <linearGradient id="paint1_linear_8_11" x1="953" y1="160" x2="1427" y2="858" gradientUnits="userSpaceOnUse">
      <stop stop-color="white" stop-opacity="0.1"/>
      <stop offset="1" stop-color="white" stop-opacity="0.03"/>
    </linearGradient>
  </defs>
</svg>
